:SAMPLES-PER-SECOND 30
:FULLY-SPECIFIED
:DEGREES
501
root  -54.2021 31.9267 -67.8606 2.44354 61.5373 -6.22935
RightUpLeg  -37.4453 2.66581 8.90798
RightLeg  47.0616 -6.63237 -6.26289
RightFoot  -8.09026 0.0457824 1.02502
RightToes  -14.9969 -0.0553589 -0.135429
Spine  5.15219 -6.13253 1.85871
Spine1  8.60198 -12.6537 2.65617
HEad  4.4644 -12.5646 13.6258
LeftShoulder1  0 -2.42657e-020 -4.95415e-022
LeftArm  1.14707 -30.9673 -77.0659
LeftForeArm  67.8724 -69.9674 -29.0507
LeftHand  0.160701 -3.71325 -5.33436
RightShoulder  0 2.42657e-020 1.07489e-018
RightArm  -18.0199 5.55146 63.9881
RightForeArm  125.696 79.784 98.329
RightHand  -1.19018 13.3511 -9.77744
LeftUpLeg  11.05 2.54606 -2.32443
LeftLeg  7.1849 -8.37312 -0.511564
LeftFoot  -15.3258 0.281987 2.09561
LeftToes  -4.24908 3.33339e-006 -4.73431e-007
502
root  -53.0696 31.5803 -67.701 1.81555 61.631 -7.35182
RightUpLeg  -39.8691 2.45109 10.321
RightLeg  42.3522 -7.66192 -6.11367
RightFoot  -9.28383 0.0775619 1.33289
RightToes  -13.2398 -0.0470635 -0.120373
Spine  5.54748 -6.09782 1.96369
Spine1  9.42073 -12.6837 2.89767
HEad  2.87726 -13.0095 14.5279
LeftShoulder1  0 -2.42657e-020 -4.95415e-022
LeftArm  1.52047 -26.8118 -75.7377
LeftForeArm  66.0314 -69.7328 -28.6561
LeftHand  0.133078 -3.7286 -4.46498
RightShoulder  0 2.42657e-020 1.07489e-018
RightArm  -16.8703 -0.700118 65.5508
RightForeArm  114.954 79.8915 90.244
RightHand  -1.3039 12.8507 -11.1751
LeftUpLeg  12.2628 0.807823 -3.15156
LeftLeg  7.87772 -6.29814 -0.462022
LeftFoot  -16.7556 0.25497 1.73116
LeftToes  -1.90104 3.33339e-006 -4.73431e-007
503
root  -51.8466 31.2527 -67.4749 1.56769 61.952 -8.15475
RightUpLeg  -42.614 2.9171 11.088
RightLeg  40.1062 -6.21091 -4.58482
RightFoot  -8.66243 0.0389871 0.892378
RightToes  -9.95392 -0.0328058 -0.0915646
Spine  5.75943 -6.09983 2.03251
Spine1  9.87274 -12.8342 3.19294
HEad  1.55272 -13.5878 15.3842
LeftShoulder1  0 -2.42657e-020 -4.95415e-022
LeftArm  2.22633 -22.9172 -75.0777
LeftForeArm  62.8885 -67.6982 -25.5626
LeftHand  0.0896285 -3.81381 -3.06707
RightShoulder  0 2.42657e-020 1.07489e-018
RightArm  -16.3069 -7.21255 67.3174
RightForeArm  99.7432 79.6221 76.626
RightHand  -1.35177 13.192 -11.2858
LeftUpLeg  13.3156 0.277934 -3.7028
LeftLeg  8.99794 -5.55463 -0.517079
LeftFoot  -17.3187 0.244744 1.60692
LeftToes  -1.55759 3.33339e-006 -4.73431e-007
504
root  -50.4622 30.9589 -67.1918 1.39813 62.8952 -8.93814
RightUpLeg  -45.1114 3.38778 11.2316
RightLeg  41.6591 -4.29707 -3.37185
RightFoot  -7.76526 0.00476777 0.447839
RightToes  -16.2929 -0.0617714 -0.146368
Spine  5.88492 -6.40298 2.15037
Spine1  10.168 -13.607 3.68704
HEad  0.461223 -14.3686 15.7187
LeftShoulder1  0 -2.42657e-020 -4.95415e-022
LeftArm  2.98856 -18.9046 -73.8695
LeftForeArm  61.5752 -66.3407 -23.816
LeftHand  0.0844131 -3.74553 -2.95662
RightShoulder  0 2.42657e-020 1.07489e-018
RightArm  -16.7784 -12.3862 69.6941
RightForeArm  83.8422 78.4017 60.1386
RightHand  -1.31594 13.8205 -10.4611
LeftUpLeg  13.9313 -0.759919 -4.24511
LeftLeg  11.2333 -5.00829 -0.664361
LeftFoot  -17.3559 0.227359 1.48954
LeftToes  -1.64409 3.33339e-006 -4.73431e-007
505
root  -48.8882 30.7385 -66.8527 0.368042 64.4103 -10.8072
RightUpLeg  -46.3913 3.32614 11.5418
RightLeg  45.264 -3.81271 -3.40868
RightFoot  -10.0756 0.0229332 0.637743
RightToes  -14.8686 -0.0547376 -0.134339
Spine  5.89517 -6.95443 2.57853
Spine1  10.2449 -14.794 4.63991
HEad  -0.235665 -15.0025 15.4511
LeftShoulder1  0 -2.42657e-020 -4.95415e-022
LeftArm  3.0412 -14.3701 -73.4977
LeftForeArm  59.0549 -64.9178 -22.2036
LeftHand  0.078827 -4.13262 -2.5588
RightShoulder  0 2.42657e-020 1.07489e-018
RightArm  -17.5947 -15.8865 71.6283
RightForeArm  67.6569 75.9723 45.3734
RightHand  -1.20753 14.0351 -9.42047
LeftUpLeg  14.1235 -2.65606 -4.52311
LeftLeg  14.48 -4.09512 -0.782021
LeftFoot  -16.4266 0.170273 1.17963
LeftToes  -2.67876 3.33339e-006 -4.73431e-007
